<svg width="50" height="50" viewBox="0 0 50 50" fill="none" xmlns="http://www.w3.org/2000/svg">
<mask id="mask0_3_11" style="mask-type:alpha" maskUnits="userSpaceOnUse" x="0" y="0" width="50" height="50">
<circle cx="25" cy="25" r="25" fill="white"/>
</mask>
<g mask="url(#mask0_3_11)">
<circle cx="25" cy="25" r="24" stroke="black" stroke-width="2"/>
<path d="M11.7825 30.3518L5.33325 43.0667V54.6667H47.3333V36.7394L38.1239 26.4391C37.0807 25.2724 36.9989 23.5339 37.9279 22.2743C39.3611 20.3311 38.2947 17.5569 35.9289 17.0741L34.6251 16.8079C32.702 16.4154 30.9742 18.0545 31.2648 19.9956C31.4893 21.4948 30.4909 22.9042 29.002 23.1897L20.2014 24.8771C18.4953 25.2042 16.8847 23.9726 16.7533 22.2404C16.5758 19.9004 13.843 18.7231 12.0205 20.2015L10.8573 21.1451C9.22075 22.4726 9.2362 24.9748 10.889 26.282C12.1171 27.2533 12.4908 28.9554 11.7825 30.3518Z" stroke="black" stroke-width="2"/>
<circle cx="34.7867" cy="20.3333" r="1.66667" fill="black"/>
<circle cx="13.6665" cy="23.6667" r="1.66667" fill="black"/>
<path d="M23.6249 31.7315L24.6206 32.3514C26.5748 33.5683 29.1304 32.3348 29.3935 30.0478V30.0478" stroke="black" stroke-width="2"/>
</g>
</svg>
